<?xml version="1.0" encoding="utf-8"?>
<!-- Generator: Adobe Illustrator 17.0.0, SVG Export Plug-In . SVG Version: 6.00 Build 0)  -->
<!DOCTYPE svg PUBLIC "-//W3C//DTD SVG 1.1//EN" "http://www.w3.org/Graphics/SVG/1.1/DTD/svg11.dtd">
<svg version="1.1" id="Calque_1" xmlns="http://www.w3.org/2000/svg" xmlns:xlink="http://www.w3.org/1999/xlink" x="0px" y="0px"
	 width="128px" height="128px" viewBox="-14 -19.401 128 128" enable-background="new -14 -19.401 128 128" xml:space="preserve">
<path fill="#FFFFFF" d="M108.952,50.036c0.373-0.498,0.271-1.201-0.224-1.575c-0.291-0.201-0.878-0.944-1.433-1.788
	c-0.333-0.505-0.675-1.036-1.021-1.556l-0.789-4.932h-3.604c-4.037-3.397-9.247-5.447-14.935-5.447
	c-3.381,0-6.591,0.736-9.492,2.037l-3.596-6.668c-0.108-0.2-0.254-0.369-0.419-0.504l3.435-6.23c0.115,0.299,0.321,0.55,0.698,0.665
	c1.38,0.421,5.235-1.189,5.235-1.189l-0.215-0.749c0.937-0.018,1.678-0.053,2.014-0.103c1.487-0.213,2.052-3.678,1.487-4.528
	c-0.566-0.849-5.307,0.07-7.643,0.07c-2.335,0-12.314-0.638-11.677,1.062c0.637,1.698,6.583,1.91,6.794,2.76
	c0.049,0.195,0.597,0.346,1.406,0.458l-3.799,6.894c-0.408,0.122-0.776,0.394-1.001,0.797L57.813,51.66l-0.716-0.052
	c-0.138-0.009-0.265,0.018-0.391,0.052c-0.299-0.038-0.591-0.091-0.899-0.091c-2.777,0-5.157,1.608-6.32,3.934
	c-0.574-0.366-1.16-0.763-1.758-1.219c-3.048-2.288-6.315-5.535-9.294-9.176c-3.188-3.893-6.126-8.913-8.237-12.939
	c-1.058-2.013-1.913-3.779-2.501-5.038c-0.352-0.752-0.593-1.289-0.741-1.624c0.671-3.045,1.07-5.022,1.071-5.029
	c0.051-0.253,0.046-0.505-0.018-0.755l-1.413-5.532l1.629-1.181c0.06-0.044,0.118-0.091,0.173-0.143
	c0.684,0.088,2.007,0.396,3.383,0.74c0.005,0.001,0.013,0.002,0.019,0.002c0.192,0.386,0.494,1.023,1.109,1.592
	c0.804,0.741,2.088,1.255,4.094,1.255c0.012,0,0.021,0,0.034,0c0.549,0,1.156-0.036,1.834-0.115
	c0.465-0.052,0.801-0.471,0.747-0.937c-0.054-0.468-0.472-0.802-0.94-0.747c-0.624,0.07-1.167,0.102-1.642,0.102
	c-1.47-0.022-2.239-0.275-2.714-0.6c0.954,0.175,1.916,0.302,2.843,0.305c0.437,0,0.873-0.028,1.311-0.105
	c0.922-0.165,1.54-1.043,1.376-1.966c-0.162-0.924-1.044-1.541-1.967-1.378h-0.001c-0.187,0.034-0.43,0.053-0.718,0.053
	c-1.171,0.007-2.935-0.36-4.589-0.762c-1.698-0.394-3.185-0.832-4.528-0.856c-0.401,0.011-0.834,0.02-1.405,0.309
	c-0.311,0.131-0.614,0.443-0.827,0.807l-2.145,1.553c-0.567,0.41-0.824,1.121-0.651,1.795l1.603,6.273
	c-0.337,1.639-1.75,8.385-3.616,15.755c-1.9-0.778-3.914-1.311-6.023-1.529c0.018-0.079,0.049-0.154,0.049-0.241v-0.961
	c0.794-0.276,1.292-0.926,1.292-2.463c0-1.437-2.193-2.601-4.896-2.601c0,0-0.722,0.005-0.722,2.623c0,2.616,0.722,2.58,0.722,2.58
	c0.475,0,0.924,0.019,1.359,0.036v0.791c0,0.044,0.02,0.082,0.025,0.125c-0.027,0-0.052-0.004-0.079-0.004
	c-0.817,0-1.582,0.031-2.3,0.084c-0.619,0.047-1.083,0.588-1.034,1.206c0.024,0.312,0.175,0.585,0.395,0.772
	C-0.908,37.749-9.177,46.876-9.177,57.95c0.001,12.041,9.758,21.795,21.797,21.799c10.71-0.004,19.594-7.729,21.432-17.907
	c0.199,0.156,0.426,0.263,0.679,0.263c0.156,0,0.316-0.033,0.469-0.103c0.565-0.262,0.812-0.926,0.55-1.494
	c-0.236-0.431-0.335-1.977-0.316-2.398c0-0.09,0.002-0.125,0.002-0.125c-0.015-8.742-4.56-16.372-11.327-20.477
	c0.186-0.724,0.369-1.445,0.547-2.156c0.382-1.543,0.742-3.041,1.075-4.46c2.152,4.368,5.804,11.138,10.074,16.373
	c3.126,3.816,6.545,7.228,9.883,9.737c1.034,0.769,2.055,1.451,3.068,2.038c0.202,3.734,3.267,6.71,7.052,6.71
	c0.496,0,0.979-0.053,1.445-0.15c0.037,0.004,0.071,0.021,0.107,0.021c0.043,0,0.09-0.004,0.134-0.007l2.321-0.257
	c0.011,0.002,0.019,0.013,0.027,0.017l7.551,2.162c3.549,7.227,10.96,12.211,19.556,12.211c12.039,0,21.795-9.757,21.797-21.799
	c0-2.741-0.531-5.356-1.455-7.774c0.032,0.026,0.057,0.065,0.088,0.09C107.872,50.634,108.577,50.533,108.952,50.036z M12.618,75.5
	C2.927,75.483-4.915,67.641-4.933,57.947c0.018-9.69,7.858-17.532,17.551-17.551c0.156,0,0.309,0.021,0.464,0.024
	c-0.008,0.082-0.032,0.16-0.025,0.245c0.07,0.663,0.663,1.142,1.326,1.075c0,0,0.066-0.007,0.239-0.007
	c0.53-0.022,1.616,0.162,2.019,0.663c0.238,0.258,0.565,0.391,0.889,0.391c0.292,0,0.586-0.105,0.817-0.32
	c0.275-0.251,0.391-0.601,0.373-0.946c0.241,0.09,0.49,0.167,0.726,0.267c-0.821,2.936-1.682,5.783-2.545,8.228
	c-0.114,0.169-0.201,0.362-0.25,0.569c-0.215,1.097-1.474,2.432-2.829,3.347c-0.221,0.155-0.433,0.282-0.647,0.415
	c-0.185-0.03-0.369-0.057-0.561-0.057c-2.021,0-3.663,1.639-3.663,3.66c0,2.023,1.64,3.663,3.663,3.663
	c1.532,0,2.839-0.944,3.386-2.28c0.621-0.626,1.102-1.393,1.619-2.302c1.682-3.126,3.36-8.174,4.883-13.562
	c4.617,3.159,7.648,8.461,7.661,14.482C30.15,67.641,22.31,75.483,12.618,75.5z M61.388,54.332l1.726,0.123
	c0.083,0.062,0.163,0.111,0.225,0.163c0.498,0.291,1.161,0.537,1.971,0.772c-0.098,0.84-0.163,1.692-0.163,2.558
	c0,1.487,0.151,2.935,0.434,4.338l-3.984,0.441c0.813-1.154,1.297-2.551,1.297-4.069C62.894,57.019,62.32,55.532,61.388,54.332z
	 M82.899,56.259c-1.349-0.207-2.896-0.451-4.515-0.716l4.719,0.335C83.033,56.003,82.956,56.124,82.899,56.259z M69.396,57.947
	c0.001-0.53,0.034-1.05,0.08-1.568c4.118,0.85,9.412,1.708,13.155,2.282c0.101,0.608,0.317,1.172,0.638,1.669l-13.429,1.483
	C69.559,60.568,69.397,59.277,69.396,57.947z M70.259,52.544c1.224-3.771,3.678-6.983,6.902-9.155l1.246,2.308l-1.036,0.534
	c-0.344,0.179-0.462,0.633-0.264,1.018l1.624,3.149c0.198,0.383,0.638,0.552,0.981,0.372l1.118-0.575l1.739,3.225L70.259,52.544z
	 M71.832,33.505l2.638,4.892c-4.87,3.113-8.495,7.988-9.98,13.735l-0.549-0.038c-0.104-0.022-0.199-0.028-0.301-0.022l-2.087-0.149
	L71.832,33.505z M52.111,58.658c0.004-2.038,1.653-3.689,3.694-3.693c2.04,0.004,3.689,1.655,3.691,3.693
	c-0.002,2.04-1.652,3.688-3.691,3.691C53.766,62.346,52.116,60.695,52.111,58.658z M65.706,64.701l0.501-0.053
	c0.032,0.096,0.072,0.189,0.105,0.285L65.706,64.701z M86.946,75.5c-5.351-0.011-10.131-2.412-13.344-6.189l0.922,0.266
	c0.063,0.02,0.128,0.027,0.192,0.027c0.292,0,0.567-0.186,0.664-0.477c0.12-0.355-0.062-0.744-0.41-0.877l-2.954-1.133
	c-0.574-0.931-1.062-1.917-1.453-2.953l16.586-1.834c0.033-0.004,0.053-0.022,0.085-0.026c2.288-0.149,4.103-2.031,4.103-4.357
	c0-2.422-1.965-4.385-4.387-4.385c-0.142,0-0.276,0.027-0.414,0.039l-5.812-10.776c0.149-0.071,0.305-0.136,0.462-0.181
	c0.251-0.078,0.491-0.123,0.657-0.148c0.167-0.024,0.228-0.022,0.228-0.025c0.666-0.031,1.181-0.593,1.152-1.259
	c-0.007-0.136-0.046-0.259-0.095-0.378c1.233-0.277,2.51-0.434,3.823-0.437c9.692,0.019,17.532,7.862,17.55,17.551
	C104.477,67.641,96.638,75.483,86.946,75.5z"/>
</svg>
