<?xml version="1.0" encoding="utf-8"?>
<!-- Generator: Adobe Illustrator 17.0.0, SVG Export Plug-In . SVG Version: 6.00 Build 0)  -->
<!DOCTYPE svg PUBLIC "-//W3C//DTD SVG 1.1//EN" "http://www.w3.org/Graphics/SVG/1.1/DTD/svg11.dtd">
<svg version="1.1" xmlns="http://www.w3.org/2000/svg" xmlns:xlink="http://www.w3.org/1999/xlink" x="0px" y="0px" width="128px"
	 height="128px" viewBox="-14 -16.901 128 128" enable-background="new -14 -16.901 128 128" xml:space="preserve">
<g id="Calque_1" display="none">
	
		<image display="inline" overflow="visible" width="150" height="150" xlink:href="Les-points-d-attache_visuel_article.jpg"  transform="matrix(0.5527 0 0 0.5527 10.1944 5.6487)">
	</image>
</g>
<g id="Calque_2">
	<path fill="none" stroke="#FFFFFF" stroke-width="4" stroke-miterlimit="10" d="M30.655,99.925c0,0-0.805-3.509-3.22-5.743
		c-2.415-2.233,0-90.926,0-90.926s3.22-6.381,7.245-8.614s35.825,6.381,37.435,7.976c1.61,1.595,2.415,87.736,0,90.607
		c-2.415,2.871-1.61,6.7-4.83,6.7C64.064,99.925,30.655,99.925,30.655,99.925z"/>
	<path fill="none" stroke="#FFFFFF" stroke-width="3" stroke-miterlimit="10" d="M62.454,34.99c0,0-28.579,0.805-30.19-2.013
		c-1.61-2.818-2.415-22.542,0-22.944s30.995-1.61,32.605,0S68.492,31.77,62.454,34.99z"/>
	<path fill="#FFFFFF" stroke="#FFFFFF" stroke-width="4" stroke-miterlimit="10" d="M61.971,22.158c0,2.797-2.267,5.064-5.064,5.064
		l0,0c-2.797,0-5.064-2.267-5.064-5.064l0,0c0-2.797,2.267-5.064,5.064-5.064l0,0C59.704,17.094,61.971,19.361,61.971,22.158
		L61.971,22.158z"/>
</g>
</svg>
